<?xml version="1.0" standalone="no"?>
<!DOCTYPE svg PUBLIC "-//W3C//DTD SVG 20010904//EN"
 "http://www.w3.org/TR/2001/REC-SVG-20010904/DTD/svg10.dtd">
<svg version="1.0" xmlns="http://www.w3.org/2000/svg"
 width="525.000000pt" height="600.000000pt" viewBox="0 0 525.000000 600.000000"
 preserveAspectRatio="xMidYMid meet">

<g transform="translate(0.000000,600.000000) scale(0.100000,-0.100000)"
fill="#000000" stroke="none">
<path d="M1575 5942 c-172 -59 -234 -151 -243 -359 -10 -236 54 -548 248
-1208 128 -435 182 -660 215 -900 20 -139 23 -317 6 -358 -12 -30 -56 -83
-632 -757 -424 -498 -515 -608 -683 -830 -212 -282 -326 -463 -326 -519 0 -66
260 -465 521 -801 120 -155 140 -174 171 -165 32 10 405 386 574 580 76 88
307 359 511 602 205 243 376 444 381 447 7 4 563 -576 899 -939 290 -314 414
-406 465 -347 8 9 112 191 232 403 207 370 216 388 216 440 0 71 -32 139 -159
333 -234 358 -441 808 -496 1074 -14 68 -14 92 -5 139 44 209 316 711 684
1263 367 549 658 900 819 986 59 32 76 47 95 84 88 176 -85 505 -332 630 -127
64 -282 20 -520 -148 -189 -134 -270 -207 -799 -725 -233 -229 -412 -396 -417
-391 -4 5 -99 171 -211 369 -223 397 -271 477 -370 611 -282 383 -604 569
-844 486z"/>
</g>
</svg>
