<svg width="64" height="64" xmlns="http://www.w3.org/2000/svg">

 <title/>
 <g>
  <title>background</title>
  <rect fill="none" id="canvas_background" height="402" width="582" y="-1" x="-1"/>
 </g>
 <g>
  <title>Layer 1</title>
  <path fill="#ff0000" id="svg_1" d="m57,34.870133l-11.22,-6.31a7.23,7.23 0 0 0 -10.78,6.31l0,17.48a1.43,1.43 0 0 0 -1.39,-1.48l-3.22,0a1.43,1.43 0 0 0 -1.39,1.48l0,-17.48a7.23,7.23 0 0 0 -10.78,-6.31l-11.22,6.31l8,-12a20.2,20.2 0 0 1 17,-9a20.2,20.2 0 0 1 17,9l8,12z" class="cls-1"/>
  <path fill="#ff0000" id="svg_2" d="m57,35l-4,2.08a35.57,35.57 0 0 0 -9.25,6.33a18.37,18.37 0 0 0 -5,9.57a5,5 0 0 1 -4.9,4l-3.75,0a5,5 0 0 1 -4.9,-4c-1.63,-8.13 -6.85,-12.08 -14.2,-15.9l-4,-2.08l11.22,-6.31a7.23,7.23 0 0 1 10.78,6.31l0,17.48a1.43,1.43 0 0 1 1.39,-1.48l3.22,0a1.43,1.43 0 0 1 1.39,1.48l0,-17.48a7.23,7.23 0 0 1 10.78,-6.31l11.22,6.31z" class="cls-2"/>
  <path fill="#ffffff" id="svg_3" d="m35,52.48a1.49,1.49 0 0 1 -0.77,1.33l-2.23,1.19l-2.23,-1.19a1.49,1.49 0 0 1 -0.77,-1.33a1.43,1.43 0 0 1 1.39,-1.48l3.22,0a1.43,1.43 0 0 1 1.39,1.48z" class="cls-3"/>
  <path fill="#ff0000" id="svg_4" d="m21.09,17.09a20.12,20.12 0 0 0 -6.09,5.91l-0.52,0.78a7.69,7.69 0 0 1 -3.48,-6.49l0,-10.29l10.09,10.09z" class="cls-4"/>
  <path fill="#ff0000" id="svg_5" d="m53,7l0,10.29a7.69,7.69 0 0 1 -3.5,6.46l-0.5,-0.75a20.12,20.12 0 0 0 -6.07,-5.88l10.07,-10.12z" class="cls-4"/>
  <circle fill="#ffffff" id="svg_6" r="2" cy="35.5" cx="23.5" class="cls-5"/>
  <circle stroke="null" fill="#ffffff" id="svg_7" r="2" cy="35.370133" cx="40.629867" class="cls-5"/>
 </g>
</svg>